<svg width="30" height="30" viewBox="0 0 30 30" fill="none" xmlns="http://www.w3.org/2000/svg">
<g clip-path="url(#clip0_22_1069)">
<path d="M16.5 13.5V7.5H13.5V13.5H7.5V16.5H13.5V22.5H16.5V16.5H22.5V13.5H16.5ZM15 30C11.0218 30 7.20644 28.4196 4.3934 25.6066C1.58035 22.7936 0 18.9782 0 15C0 11.0218 1.58035 7.20644 4.3934 4.3934C7.20644 1.58035 11.0218 0 15 0C18.9782 0 22.7936 1.58035 25.6066 4.3934C28.4196 7.20644 30 11.0218 30 15C30 18.9782 28.4196 22.7936 25.6066 25.6066C22.7936 28.4196 18.9782 30 15 30Z" fill="#1B59F8"/>
</g>
<defs>
<clipPath id="clip0_22_1069">
<rect width="30" height="30" fill="white"/>
</clipPath>
</defs>
</svg>
