<svg width="26" height="29" viewBox="0 0 26 29" fill="none" xmlns="http://www.w3.org/2000/svg">
<g filter="url(#filter0_d_1154_14664)">
<path d="M4.5 11C4.5 9.10025 4.50106 7.72573 4.64199 6.67754C4.78098 5.64373 5.04772 5.00253 5.52513 4.52513C6.00253 4.04772 6.64373 3.78098 7.67754 3.64199C8.72573 3.50106 10.1002 3.5 12 3.5H14C15.8998 3.5 17.2743 3.50106 18.3225 3.64199C19.3563 3.78098 19.9975 4.04772 20.4749 4.52513C20.9523 5.00253 21.219 5.64373 21.358 6.67754C21.4989 7.72573 21.5 9.10025 21.5 11V13C21.5 14.8998 21.4989 16.2743 21.358 17.3225C21.219 18.3563 20.9523 18.9975 20.4749 19.4749C19.9975 19.9523 19.3563 20.219 18.3225 20.358C17.2743 20.4989 15.8998 20.5 14 20.5H12C10.1002 20.5 8.72573 20.4989 7.67754 20.358C6.64373 20.219 6.00253 19.9523 5.52513 19.4749C5.04772 18.9975 4.78098 18.3563 4.64199 17.3225C4.50106 16.2743 4.5 14.8998 4.5 13V11Z" stroke="#7E869E" stroke-opacity="0.25"/>
<path d="M13 8L13 16" stroke="white" stroke-linejoin="round"/>
<path d="M17 12L9 12" stroke="white" stroke-linejoin="round"/>
</g>
<defs>
<filter id="filter0_d_1154_14664" x="-3" y="0" width="32" height="32" filterUnits="userSpaceOnUse" color-interpolation-filters="sRGB">
<feFlood flood-opacity="0" result="BackgroundImageFix"/>
<feColorMatrix in="SourceAlpha" type="matrix" values="0 0 0 0 0 0 0 0 0 0 0 0 0 0 0 0 0 0 127 0" result="hardAlpha"/>
<feOffset dy="4"/>
<feGaussianBlur stdDeviation="2"/>
<feComposite in2="hardAlpha" operator="out"/>
<feColorMatrix type="matrix" values="0 0 0 0 0 0 0 0 0 0 0 0 0 0 0 0 0 0 0.25 0"/>
<feBlend mode="normal" in2="BackgroundImageFix" result="effect1_dropShadow_1154_14664"/>
<feBlend mode="normal" in="SourceGraphic" in2="effect1_dropShadow_1154_14664" result="shape"/>
</filter>
</defs>
</svg>
