<svg width="20" height="20" viewBox="0 0 20 20" fill="none" xmlns="http://www.w3.org/2000/svg">
<g clip-path="url(#clip0_38_826)">
<path d="M16.1571 13.7319H17.5143C17.8742 13.7319 18.2194 13.5889 18.4739 13.3344C18.7284 13.0799 18.8714 12.7347 18.8714 12.3748V10.3391C18.8714 9.97914 18.7284 9.63395 18.4739 9.37943C18.2194 9.12492 17.8742 8.98193 17.5143 8.98193H16.1571C15.9772 8.98193 15.8046 9.05343 15.6773 9.18068C15.5501 9.30794 15.4786 9.48054 15.4786 9.6605V13.0534C15.4786 13.2333 15.5501 13.4059 15.6773 13.5332C15.8046 13.6604 15.9772 13.7319 16.1571 13.7319ZM16.1571 13.7319V14.7498C16.1571 15.4697 15.8712 16.1601 15.3622 16.6691C14.8531 17.1781 14.1627 17.4641 13.4429 17.4641M2.58572 8.98193H3.94286C4.12283 8.98193 4.29543 9.05343 4.42268 9.18068C4.54994 9.30794 4.62143 9.48054 4.62143 9.6605V13.0534C4.62143 13.2333 4.54994 13.4059 4.42268 13.5332C4.29543 13.6604 4.12283 13.7319 3.94286 13.7319H2.58572C2.22578 13.7319 1.88059 13.5889 1.62607 13.3344C1.37156 13.0799 1.22858 12.7347 1.22858 12.3748V10.3391C1.22858 9.97914 1.37156 9.63395 1.62607 9.37943C1.88059 9.12492 2.22578 8.98193 2.58572 8.98193Z" stroke="#1B59F8" stroke-linecap="round" stroke-linejoin="round"/>
<path d="M3.94287 8.98186V7.62472C3.94287 6.00501 4.5863 4.45163 5.73161 3.30632C6.87692 2.16101 8.4303 1.51758 10.05 1.51758C11.6697 1.51758 13.2231 2.16101 14.3684 3.30632C15.5137 4.45163 16.1572 6.00501 16.1572 7.62472V8.98186M8.0143 6.26758V8.30329M12.0857 6.26758V8.30329M8.0143 11.0176C8.0143 12.8226 12.0857 12.8226 12.0857 11.0176M11.7464 15.7676C12.1964 15.7676 12.6279 15.9463 12.946 16.2644C13.2641 16.5826 13.4429 17.0141 13.4429 17.464C13.4429 17.9139 13.2641 18.3454 12.946 18.6636C12.6279 18.9817 12.1964 19.1604 11.7464 19.1604H9.71073C9.26081 19.1604 8.82931 18.9817 8.51117 18.6636C8.19303 18.3454 8.0143 17.9139 8.0143 17.464C8.0143 17.0141 8.19303 16.5826 8.51117 16.2644C8.82931 15.9463 9.26081 15.7676 9.71073 15.7676H11.7464Z" stroke="#1B59F8" stroke-linecap="round" stroke-linejoin="round"/>
</g>
<defs>
<clipPath id="clip0_38_826">
<rect width="19" height="19" fill="white" transform="translate(0.549988 0.838867)"/>
</clipPath>
</defs>
</svg>
