<svg width="19" height="19" viewBox="0 0 19 19" fill="none" xmlns="http://www.w3.org/2000/svg">
<g clip-path="url(#clip0_27_515)">
<path d="M9.5 19C4.23047 19 0 14.7107 0 9.5C0 4.23047 4.23047 0 9.5 0C14.7695 0 19 4.23047 19 9.5C19 14.7107 14.7695 19 9.5 19ZM9.5 1.596C5.149 1.596 1.59244 5.149 1.59244 9.50059C1.59244 13.8522 5.149 17.4082 9.5 17.4082C13.851 17.4082 17.4076 13.8516 17.4076 9.50059C17.4076 5.14959 13.851 1.596 9.5 1.596ZM14.1603 10.4185H7.29481C7.14935 10.4193 7.00948 10.3625 6.90579 10.2605C6.80209 10.1584 6.743 10.0195 6.74144 9.87406V9.07309C6.74144 8.76375 6.98547 8.51972 7.29481 8.51972H14.2185C14.5249 8.51972 14.7689 8.76731 14.7689 9.07309V9.86813C14.7102 10.1745 14.4626 10.4185 14.1597 10.4185H14.1603ZM12.3821 7.35359H5.45478C5.30922 7.3547 5.16917 7.29798 5.06541 7.19588C4.96165 7.09379 4.90266 6.95469 4.90141 6.80913V6.00816C4.90141 5.76056 5.149 5.51653 5.45478 5.51653H12.3785C12.6261 5.51653 12.8701 5.76413 12.8701 6.00816V6.80319C12.8701 7.10956 12.6267 7.35359 12.3821 7.35359ZM5.45537 11.6464H12.3827C12.689 11.6464 12.9331 11.8904 12.9331 12.1968V12.9918C12.9337 13.1378 12.8764 13.278 12.7738 13.3817C12.6711 13.4855 12.5316 13.5443 12.3856 13.5452H5.45537C5.149 13.4835 4.90497 13.2388 4.90497 12.9331V12.1351C4.902 11.891 5.149 11.6464 5.45537 11.6464Z" fill="#1B59F8"/>
</g>
<defs>
<clipPath id="clip0_27_515">
<rect width="19" height="19" fill="white"/>
</clipPath>
</defs>
</svg>
