<svg width="17" height="19" viewBox="0 0 17 19" fill="none" xmlns="http://www.w3.org/2000/svg">
<path d="M4.39758 17.4169V15.1551C4.16167 12.7983 1.375 11.5364 1.375 7.91687C1.375 4.29895 3.53388 1.5392 7.85242 1.58353C10.9613 1.61678 13.8976 3.39328 13.8976 7.01278L15.625 9.72662C15.625 11.5364 13.8976 11.5364 13.8976 11.5364C13.8976 11.5364 14.3298 16.06 10.4428 16.06V17.4169" stroke="black" stroke-width="1.5" stroke-linecap="round" stroke-linejoin="round"/>
<path d="M7.70833 9.50016C8.12826 9.50016 8.53099 9.33335 8.82792 9.03641C9.12485 8.73948 9.29167 8.33676 9.29167 7.91683C9.29167 7.4969 9.12485 7.09418 8.82792 6.79724C8.53099 6.50031 8.12826 6.3335 7.70833 6.3335C7.28841 6.3335 6.88568 6.50031 6.58875 6.79724C6.29182 7.09418 6.125 7.4969 6.125 7.91683C6.125 8.33676 6.29182 8.73948 6.58875 9.03641C6.88568 9.33335 7.28841 9.50016 7.70833 9.50016Z" stroke="black" stroke-width="1.5" stroke-linecap="round" stroke-linejoin="round"/>
<path d="M7.70831 10.292C8.3382 10.292 8.94229 10.0418 9.38769 9.59637C9.83309 9.15097 10.0833 8.54688 10.0833 7.91699C10.0833 7.2871 9.83309 6.68301 9.38769 6.23761C8.94229 5.79221 8.3382 5.54199 7.70831 5.54199C7.07842 5.54199 6.47433 5.79221 6.02893 6.23761C5.58354 6.68301 5.33331 7.2871 5.33331 7.91699C5.33331 8.54688 5.58354 9.15097 6.02893 9.59637C6.47433 10.0418 7.07842 10.292 7.70831 10.292Z" stroke="black" stroke-width="1.5" stroke-linecap="round" stroke-linejoin="round"/>
</svg>
