<svg width="20" height="20" viewBox="0 0 20 20" fill="none" xmlns="http://www.w3.org/2000/svg">
<g clip-path="url(#clip0_22_1445)">
<path d="M5.94757 18.2557V15.9939C5.71165 13.6372 2.92499 12.3752 2.92499 8.75574C2.92499 5.13782 5.08386 2.37807 9.4024 2.4224C12.5113 2.45565 15.4476 4.23215 15.4476 7.85165L17.175 10.5655C17.175 12.3752 15.4476 12.3752 15.4476 12.3752C15.4476 12.3752 15.8798 16.8988 11.9927 16.8988V18.2557" stroke="#1B59F8" stroke-width="1.5" stroke-linecap="round" stroke-linejoin="round"/>
<path d="M9.25832 10.339C9.67825 10.339 10.081 10.1722 10.3779 9.87528C10.6748 9.57835 10.8417 9.17562 10.8417 8.7557C10.8417 8.33577 10.6748 7.93304 10.3779 7.63611C10.081 7.33918 9.67825 7.17236 9.25832 7.17236C8.8384 7.17236 8.43567 7.33918 8.13874 7.63611C7.8418 7.93304 7.67499 8.33577 7.67499 8.7557C7.67499 9.17562 7.8418 9.57835 8.13874 9.87528C8.43567 10.1722 8.8384 10.339 9.25832 10.339Z" stroke="#1B59F8" stroke-width="1.5" stroke-linecap="round" stroke-linejoin="round"/>
<path d="M9.2583 11.1309C9.88819 11.1309 10.4923 10.8806 10.9377 10.4352C11.3831 9.98984 11.6333 9.38575 11.6333 8.75586C11.6333 8.12597 11.3831 7.52188 10.9377 7.07648C10.4923 6.63108 9.88819 6.38086 9.2583 6.38086C8.62841 6.38086 8.02432 6.63108 7.57892 7.07648C7.13352 7.52188 6.8833 8.12597 6.8833 8.75586C6.8833 9.38575 7.13352 9.98984 7.57892 10.4352C8.02432 10.8806 8.62841 11.1309 9.2583 11.1309Z" stroke="#1B59F8" stroke-width="1.5" stroke-linecap="round" stroke-linejoin="round"/>
</g>
<defs>
<clipPath id="clip0_22_1445">
<rect width="19" height="19" fill="white" transform="translate(0.549988 0.838867)"/>
</clipPath>
</defs>
</svg>
