<svg width="28" height="32" viewBox="0 0 28 32" fill="none" xmlns="http://www.w3.org/2000/svg">
<g filter="url(#filter0_d_1154_16095)">
<path d="M10 2L9.29289 1.29289L10 0.585786L10.7071 1.29289L10 2ZM11 17C11 17.5523 10.5523 18 10 18C9.44772 18 9 17.5523 9 17L11 17ZM4.29289 6.29289L9.29289 1.29289L10.7071 2.70711L5.70711 7.70711L4.29289 6.29289ZM10.7071 1.29289L15.7071 6.29289L14.2929 7.70711L9.29289 2.70711L10.7071 1.29289ZM11 2L11 9.5L9 9.5L9 2L11 2ZM11 9.5L11 17L9 17L9 9.5L11 9.5Z" fill="#FF3A00"/>
<path d="M18 22L17.2929 22.7071L18 23.4142L18.7071 22.7071L18 22ZM19 7C19 6.44772 18.5523 6 18 6C17.4477 6 17 6.44772 17 7L19 7ZM12.2929 17.7071L17.2929 22.7071L18.7071 21.2929L13.7071 16.2929L12.2929 17.7071ZM18.7071 22.7071L23.7071 17.7071L22.2929 16.2929L17.2929 21.2929L18.7071 22.7071ZM19 22L19 7L17 7L17 22L19 22Z" fill="#FF3A00"/>
</g>
<defs>
<filter id="filter0_d_1154_16095" x="-2" y="0" width="32" height="32" filterUnits="userSpaceOnUse" color-interpolation-filters="sRGB">
<feFlood flood-opacity="0" result="BackgroundImageFix"/>
<feColorMatrix in="SourceAlpha" type="matrix" values="0 0 0 0 0 0 0 0 0 0 0 0 0 0 0 0 0 0 127 0" result="hardAlpha"/>
<feOffset dy="4"/>
<feGaussianBlur stdDeviation="2"/>
<feComposite in2="hardAlpha" operator="out"/>
<feColorMatrix type="matrix" values="0 0 0 0 0 0 0 0 0 0 0 0 0 0 0 0 0 0 0.25 0"/>
<feBlend mode="normal" in2="BackgroundImageFix" result="effect1_dropShadow_1154_16095"/>
<feBlend mode="normal" in="SourceGraphic" in2="effect1_dropShadow_1154_16095" result="shape"/>
</filter>
</defs>
</svg>
