<svg width="20" height="19" viewBox="0 0 20 19" fill="none" xmlns="http://www.w3.org/2000/svg">
<path fill-rule="evenodd" clip-rule="evenodd" d="M2.92499 2.375H15.1958V4.35417H14.4042V3.16667H3.71665V12.2708H12.1823V13.0625H2.92499V2.375ZM14.8 7.52083C15.1149 7.52083 15.417 7.39572 15.6397 7.17302C15.8624 6.95032 15.9875 6.64828 15.9875 6.33333C15.9875 6.01839 15.8624 5.71634 15.6397 5.49364C15.417 5.27094 15.1149 5.14583 14.8 5.14583C14.485 5.14583 14.183 5.27094 13.9603 5.49364C13.7376 5.71634 13.6125 6.01839 13.6125 6.33333C13.6125 6.64828 13.7376 6.95032 13.9603 7.17302C14.183 7.39572 14.485 7.52083 14.8 7.52083ZM15.6039 8.31646C16.1181 8.31646 16.525 8.54763 16.7914 8.90467C17.0404 9.23915 17.1457 9.65279 17.1694 10.0348C17.1927 10.4266 17.1393 10.8192 17.0123 11.1906C16.8936 11.535 16.6929 11.8912 16.3833 12.1355V16.0312C16.3836 16.1804 16.3277 16.3243 16.2268 16.4341C16.1259 16.544 15.9873 16.6118 15.8386 16.6241C15.6899 16.6364 15.5421 16.5923 15.4244 16.5006C15.3068 16.4089 15.228 16.2762 15.2037 16.129L14.6931 13.0625H14.5752L13.998 16.1405C13.9706 16.2858 13.89 16.4156 13.772 16.5046C13.6539 16.5936 13.5069 16.6353 13.3597 16.6216C13.2125 16.608 13.0757 16.5399 12.976 16.4307C12.8764 16.3215 12.821 16.1791 12.8208 16.0312V10.3839C12.7417 10.5045 12.6635 10.6257 12.5865 10.7477L12.5556 10.7964L12.5477 10.809L12.5457 10.8126C12.4924 10.8982 12.4181 10.9689 12.3298 11.0179C12.2416 11.0668 12.1423 11.0925 12.0414 11.0924H10.0623C9.90479 11.0924 9.75376 11.0299 9.64241 10.9185C9.53106 10.8072 9.46851 10.6562 9.46851 10.4987C9.46851 10.3412 9.53106 10.1902 9.64241 10.0788C9.75376 9.96749 9.90479 9.90494 10.0623 9.90494H11.7157C11.8118 9.7561 11.9385 9.56294 12.0715 9.36898C12.2101 9.16671 12.3628 8.95256 12.499 8.78473C12.5651 8.70279 12.6391 8.61729 12.7136 8.54723C12.75 8.51279 12.8006 8.46806 12.8624 8.42848C12.9714 8.35695 13.0986 8.31821 13.2289 8.31685L15.6039 8.31646Z" fill="black"/>
</svg>
