<svg width="27" height="28" viewBox="0 0 27 28" fill="none" xmlns="http://www.w3.org/2000/svg">
<g filter="url(#filter0_d_264_1244)">
<path d="M6.5 20C5.95 20 5.479 19.804 5.087 19.412C4.695 19.02 4.49934 18.5493 4.5 18C4.5 17.45 4.696 16.979 5.088 16.587C5.48 16.195 5.95067 15.9993 6.5 16C7.05 16 7.521 16.196 7.913 16.588C8.305 16.98 8.50067 17.4507 8.5 18C8.5 18.55 8.304 19.021 7.912 19.413C7.52 19.805 7.04934 20.0007 6.5 20ZM6.5 14C5.95 14 5.479 13.804 5.087 13.412C4.695 13.02 4.49934 12.5493 4.5 12C4.5 11.45 4.696 10.979 5.088 10.587C5.48 10.195 5.95067 9.99934 6.5 10C7.05 10 7.521 10.196 7.913 10.588C8.305 10.98 8.50067 11.4507 8.5 12C8.5 12.55 8.304 13.021 7.912 13.413C7.52 13.805 7.04934 14.0007 6.5 14ZM6.5 8C5.95 8 5.479 7.804 5.087 7.412C4.695 7.02 4.49934 6.54934 4.5 6C4.5 5.45 4.696 4.979 5.088 4.587C5.48 4.195 5.95067 3.99934 6.5 4C7.05 4 7.521 4.196 7.913 4.588C8.305 4.98 8.50067 5.45067 8.5 6C8.5 6.55 8.304 7.021 7.912 7.413C7.52 7.805 7.04934 8.00067 6.5 8ZM12.5 8C11.95 8 11.479 7.804 11.087 7.412C10.695 7.02 10.4993 6.54934 10.5 6C10.5 5.45 10.696 4.979 11.088 4.587C11.48 4.195 11.9507 3.99934 12.5 4C13.05 4 13.521 4.196 13.913 4.588C14.305 4.98 14.5007 5.45067 14.5 6C14.5 6.55 14.304 7.021 13.912 7.413C13.52 7.805 13.0493 8.00067 12.5 8ZM18.5 8C17.95 8 17.479 7.804 17.087 7.412C16.695 7.02 16.4993 6.54934 16.5 6C16.5 5.45 16.696 4.979 17.088 4.587C17.48 4.195 17.9507 3.99934 18.5 4C19.05 4 19.521 4.196 19.913 4.588C20.305 4.98 20.5007 5.45067 20.5 6C20.5 6.55 20.304 7.021 19.912 7.413C19.52 7.805 19.0493 8.00067 18.5 8ZM12.5 14C11.95 14 11.479 13.804 11.087 13.412C10.695 13.02 10.4993 12.5493 10.5 12C10.5 11.45 10.696 10.979 11.088 10.587C11.48 10.195 11.9507 9.99934 12.5 10C13.05 10 13.521 10.196 13.913 10.588C14.305 10.98 14.5007 11.4507 14.5 12C14.5 12.55 14.304 13.021 13.912 13.413C13.52 13.805 13.0493 14.0007 12.5 14ZM13.5 19V17.35C13.5 17.2167 13.525 17.0873 13.575 16.962C13.625 16.8367 13.7 16.7243 13.8 16.625L19.025 11.425C19.175 11.275 19.3417 11.1667 19.525 11.1C19.7083 11.0333 19.8917 11 20.075 11C20.275 11 20.4667 11.0377 20.65 11.113C20.8333 11.1883 21 11.3007 21.15 11.45L22.075 12.375C22.2083 12.525 22.3127 12.6917 22.388 12.875C22.4633 13.0583 22.5007 13.2417 22.5 13.425C22.5 13.6083 22.4667 13.796 22.4 13.988C22.3333 14.18 22.225 14.3507 22.075 14.5L16.875 19.7C16.775 19.8 16.6623 19.875 16.537 19.925C16.4117 19.975 16.2827 20 16.15 20H14.5C14.2167 20 13.9793 19.9043 13.788 19.713C13.5967 19.5217 13.5007 19.284 13.5 19ZM15 18.5H15.95L18.975 15.45L18.525 14.975L18.05 14.525L15 17.55V18.5ZM18.525 14.975L18.05 14.525L18.975 15.45L18.525 14.975Z" fill="#E03B8B"/>
</g>
<defs>
<filter id="filter0_d_264_1244" x="-3.5" y="0" width="32" height="32" filterUnits="userSpaceOnUse" color-interpolation-filters="sRGB">
<feFlood flood-opacity="0" result="BackgroundImageFix"/>
<feColorMatrix in="SourceAlpha" type="matrix" values="0 0 0 0 0 0 0 0 0 0 0 0 0 0 0 0 0 0 127 0" result="hardAlpha"/>
<feOffset dy="4"/>
<feGaussianBlur stdDeviation="2"/>
<feComposite in2="hardAlpha" operator="out"/>
<feColorMatrix type="matrix" values="0 0 0 0 0 0 0 0 0 0 0 0 0 0 0 0 0 0 0.25 0"/>
<feBlend mode="normal" in2="BackgroundImageFix" result="effect1_dropShadow_264_1244"/>
<feBlend mode="normal" in="SourceGraphic" in2="effect1_dropShadow_264_1244" result="shape"/>
</filter>
</defs>
</svg>
